<svg width="236" height="102" fill="none" xmlns="http://www.w3.org/2000/svg"><g filter="url(#filter0_d)"><path d="M20.375 22.172c-.352-.22-.791-.176-1.055.176l-1.409 1.98c-.308.396-.748.66-1.276.66h-.088a1.689 1.689 0 01-1.32-.66l-5.94-8.36a.775.775 0 00-.835-.264.753.753 0 00-.528.704v17.556c0 .88-.704 1.584-1.584 1.584-.836 0-1.584-.748-1.584-1.584V21.688c0-.44-.308-.748-.748-.748-.396 0-.704.308-.704.748v12.276A3.042 3.042 0 006.34 37c1.672 0 3.08-1.364 3.08-3.036V18.74l4.62 6.468a3.085 3.085 0 002.508 1.276h.088c1.012 0 1.892-.484 2.463-1.276l1.453-1.98c.22-.352.131-.836-.177-1.056zM26.8 6.332h-.043c-.968 0-1.849.44-2.465 1.232l-7.7 10.692-7.7-10.648c-.527-.792-1.495-1.276-2.463-1.276H6.34a3.014 3.014 0 00-3.036 3.036v7.392c0 .396.308.748.704.748.44 0 .748-.352.748-.748V9.368c0-.836.748-1.54 1.584-1.54h.088c.396 0 .968.176 1.232.616l8.316 11.528c.132.22.351.308.615.308.22 0 .44-.088.616-.308L25.48 8.444c.351-.396.791-.616 1.276-.616h.043c.88 0 1.628.704 1.628 1.54v24.596c0 .836-.747 1.584-1.628 1.584-.835 0-1.54-.704-1.54-1.584V16.408a.753.753 0 00-.527-.704.775.775 0 00-.837.264l-2.683 3.784c-.264.352-.177.792.175 1.056.308.22.793.132 1.012-.176l1.364-1.892v15.224A3.042 3.042 0 0026.8 37c1.672 0 3.08-1.364 3.08-3.036V9.368c0-1.628-1.364-2.992-3.08-3.036zm31.948 26.532l-5.28-14.08c-.132-.396-.572-.572-.968-.44-.396.132-.572.572-.44.968l5.28 14.08c.308.836-.088 1.76-.924 2.068-.088.044-.264.088-.528.088-.66 0-1.232-.396-1.452-1.012l-2.024-5.412c-.088-.308-.396-.484-.704-.484h-10.12c-.308 0-.616.176-.704.484l-2.068 5.412a1.521 1.521 0 01-1.452 1.012c-.22 0-.396-.044-.528-.088-.836-.308-1.232-1.232-.968-2.068l9.24-24.552c.22-.616.88-1.012 1.496-1.012h.044c.66 0 1.232.396 1.496 1.012l2.772 7.436c.176.396.616.616.968.44.396-.132.572-.572.44-.968l-2.816-7.48a3.009 3.009 0 00-2.904-1.892c-1.188-.044-2.42.748-2.904 1.936l-9.196 24.596c-.572 1.628.22 3.344 1.804 3.96a4.34 4.34 0 001.056.132 3.096 3.096 0 002.86-1.936l1.848-4.928h9.108l1.892 4.928c.396 1.188 1.54 1.936 2.816 1.936.22 0 .66 0 1.056-.132 1.584-.616 2.376-2.332 1.804-4.004zM44.359 21.776c-.352-.132-.792.088-.968.44l-.836 2.332c-.088.22-.088.484.088.66.132.22.352.352.616.352h6.732a.702.702 0 00.616-.352.702.702 0 00.088-.66l-3.388-8.976c-.088-.308-.396-.484-.704-.484a.66.66 0 00-.66.484l-1.452 3.784a.718.718 0 00.44.924.73.73 0 00.968-.396l.704-1.936 2.332 6.116h-4.62l.484-1.32c.132-.352-.044-.792-.44-.968zm35.69 9.108H69.49V18.872a.771.771 0 00-.747-.748.742.742 0 00-.748.748v12.76c0 .44.308.748.748.748H80.05c.836 0 1.54.748 1.54 1.584 0 .836-.704 1.584-1.54 1.584H66.41c-.88 0-1.584-.704-1.584-1.584V9.368c0-.88.704-1.54 1.584-1.54.88 0 1.584.66 1.584 1.54v5.808c0 .396.308.748.748.748a.771.771 0 00.748-.748V9.368c0-1.672-1.408-3.036-3.08-3.036a3.014 3.014 0 00-3.036 3.036v24.596A3.014 3.014 0 0066.41 37h13.64c1.628 0 3.036-1.364 3.036-3.036s-1.408-3.08-3.036-3.08zm31.85 1.98l-5.28-14.08c-.132-.396-.572-.572-.968-.44-.396.132-.572.572-.44.968l5.28 14.08c.308.836-.088 1.76-.924 2.068-.088.044-.264.088-.528.088-.66 0-1.232-.396-1.452-1.012l-2.024-5.412c-.088-.308-.396-.484-.704-.484h-10.12c-.308 0-.616.176-.704.484l-2.068 5.412a1.521 1.521 0 01-1.452 1.012c-.22 0-.396-.044-.528-.088-.836-.308-1.232-1.232-.968-2.068L98.26 8.84c.22-.616.88-1.012 1.496-1.012h.044c.66 0 1.232.396 1.496 1.012l2.772 7.436c.176.396.616.616.968.44.396-.132.572-.572.44-.968l-2.816-7.48a3.009 3.009 0 00-2.904-1.892c-1.188-.044-2.42.748-2.904 1.936l-9.196 24.596c-.572 1.628.22 3.344 1.804 3.96a4.34 4.34 0 001.056.132 3.096 3.096 0 002.86-1.936l1.848-4.928h9.108l1.892 4.928c.396 1.188 1.54 1.936 2.816 1.936.22 0 .66 0 1.056-.132 1.584-.616 2.376-2.332 1.804-4.004zM97.511 21.776c-.352-.132-.792.088-.968.44l-.836 2.332c-.088.22-.088.484.088.66.132.22.352.352.616.352h6.732a.702.702 0 00.616-.352.702.702 0 00.088-.66l-3.388-8.976c-.088-.308-.396-.484-.704-.484a.66.66 0 00-.66.484l-1.452 3.784a.718.718 0 00.44.924.73.73 0 00.968-.396l.704-1.936 2.332 6.116h-4.62l.484-1.32c.132-.352-.044-.792-.44-.968zm20.467-.528c.044-2.904.968-5.72 2.684-8.14 1.32-1.848 3.124-3.388 5.192-4.488a14.895 14.895 0 016.732-1.628c3.388 0 6.556 1.056 9.152 3.08.66.572.792 1.584.308 2.288-.572.704-1.628.836-2.288.352-1.98-1.628-4.444-2.464-7.172-2.464-.616 0-1.188.044-1.76.132-.396.044-.704.44-.616.836.044.396.44.704.836.616.528-.044 1.012-.088 1.54-.088 2.376 0 4.532.704 6.248 2.112 1.276 1.012 3.3.748 4.356-.572.044 0 .044 0 .044-.044a3.226 3.226 0 00-.572-4.356c-2.86-2.244-6.38-3.388-10.12-3.388A16.09 16.09 0 00125.15 7.3a17.152 17.152 0 00-5.72 4.928c-1.892 2.684-2.904 5.808-2.904 9.02 0 4.092 1.584 7.964 4.488 10.912.176.176.352.22.528.22.22 0 .396-.044.528-.22.308-.264.308-.748 0-1.056a14.263 14.263 0 01-4.092-9.856zm25.256 8.008c0-.044-.044-.044-.044-.044-1.056-1.276-3.036-1.54-4.356-.572-1.804 1.408-3.872 2.112-6.248 2.112-2.596 0-5.104-.968-6.996-2.772-1.804-1.76-2.816-4.224-2.816-6.732s.968-4.84 2.772-6.732a12.559 12.559 0 012.552-1.76.704.704 0 00.352-.968.704.704 0 00-.968-.352 11.334 11.334 0 00-2.948 2.024c-2.156 2.2-3.256 4.884-3.256 7.788s1.188 5.764 3.256 7.788c2.2 2.068 5.06 3.212 8.052 3.212 2.728 0 5.148-.792 7.128-2.42.66-.484 1.76-.352 2.332.308.484.748.396 1.76-.308 2.288-2.596 2.024-5.764 3.124-9.152 3.124-2.464 0-4.84-.616-6.996-1.804-.352-.176-.792-.044-1.012.308-.176.396-.044.836.308 1.012 2.332 1.276 5.016 1.936 7.7 1.936 3.696 0 7.216-1.144 10.076-3.388 1.32-1.056 1.54-2.992.572-4.356zm25.815.748a.742.742 0 00-.748.748v3.212c0 .88-.704 1.584-1.584 1.584-.924 0-1.584-.704-1.584-1.584v-9.988c0-.44-.308-.748-.748-.748h-10.78c-.44 0-.748.308-.748.748v9.988c0 .88-.704 1.584-1.584 1.584-.88 0-1.584-.704-1.584-1.584V9.368c0-.88.704-1.54 1.584-1.54.88 0 1.584.66 1.584 1.54v9.988c0 .44.308.748.748.748h3.828a.742.742 0 00.748-.748.771.771 0 00-.748-.748h-3.08v-9.24c0-1.716-1.364-3.036-3.08-3.036s-3.036 1.32-3.036 3.036v24.596c0 1.716 1.32 3.036 3.036 3.036s3.08-1.32 3.08-3.036v-9.24h9.284v9.24c0 1.716 1.364 3.036 3.08 3.036s3.08-1.32 3.08-3.036v-3.212a.771.771 0 00-.748-.748zm-2.332-23.672c-1.716 0-3.08 1.32-3.08 3.036v9.24h-3.608a.771.771 0 00-.748.748c0 .44.352.748.748.748h4.356c.44 0 .748-.308.748-.748V9.368c0-.88.66-1.54 1.584-1.54.88 0 1.584.66 1.584 1.54v17.688c0 .396.308.748.748.748a.771.771 0 00.748-.748V9.368c0-1.716-1.364-3.036-3.08-3.036zm10.509 0c-1.716 0-3.036 1.32-3.036 3.036v5.984c0 .396.308.748.704.748.44 0 .748-.352.748-.748V9.368c0-.88.704-1.54 1.584-1.54.88 0 1.584.66 1.584 1.54v14.784c0 .396.308.704.748.704.396 0 .748-.308.748-.704V9.368c0-1.672-1.408-3.036-3.08-3.036zm2.332 20.548a.742.742 0 00-.748.748v6.336c0 .88-.704 1.584-1.584 1.584-.88 0-1.584-.704-1.584-1.584V18.432c0-.44-.308-.748-.748-.748-.396 0-.704.308-.704.748v15.532c0 1.716 1.32 3.036 3.036 3.036 1.672 0 3.08-1.364 3.08-3.036v-6.336a.771.771 0 00-.748-.748zm19.372-6.38a.742.742 0 00-.748.748v12.716c0 .88-.66 1.584-1.54 1.584s-1.584-.704-1.584-1.584V11.7a.742.742 0 00-.748-.748h-6.556c-.88 0-1.584-.704-1.584-1.584 0-.88.704-1.54 1.584-1.54a.771.771 0 00.748-.748.742.742 0 00-.748-.748c-1.716 0-3.036 1.32-3.036 3.036 0 1.672 1.32 3.08 3.036 3.08h5.852v21.516A3.042 3.042 0 00196.642 37a3.014 3.014 0 003.036-3.036V21.248a.771.771 0 00-.748-.748zm6.644-14.168h-13.86a.742.742 0 00-.748.748c0 .396.352.748.748.748h13.86c.836 0 1.54.66 1.54 1.54 0 .836-.748 1.584-1.54 1.584h-6.644a.742.742 0 00-.748.748v5.588c0 .396.308.748.748.748a.771.771 0 00.748-.748v-4.84h5.896c1.628 0 3.036-1.408 3.036-3.08a3.042 3.042 0 00-3.036-3.036zm16.481 29.216h-5.764a.52.52 0 00-.44-.044c-.792-.088-1.408-.748-1.408-1.54V17.552a.742.742 0 00-.748-.748c-.396 0-.704.352-.704.748v16.412A3.042 3.042 0 00216.027 37h6.028c.396 0 .748-.308.748-.704a.742.742 0 00-.748-.748zm-8.36-20.416c.44 0 .748-.308.748-.748V9.368c0-.88.704-1.54 1.584-1.54h13.64c.836 0 1.54.704 1.54 1.54 0 .836-.704 1.584-1.54 1.584h-3.784a.771.771 0 00-.748.748c0 .396.352.748.748.748h3.784c1.628 0 3.036-1.408 3.036-3.08a3.042 3.042 0 00-3.036-3.036h-13.64c-1.716 0-3.036 1.32-3.036 3.036v5.016c0 .44.308.748.704.748zm15.972 15.752h-10.56v-6.16h8.976c1.672 0 3.036-1.408 3.036-3.08 0-1.672-1.408-3.036-3.036-3.036h-8.976v-6.16h2.992a.771.771 0 00.748-.748.771.771 0 00-.748-.748h-3.74a.742.742 0 00-.748.748v7.612c0 .44.308.748.748.748h9.724c.792 0 1.54.748 1.54 1.584 0 .88-.704 1.584-1.54 1.584h-9.724c-.44 0-.748.308-.748.748v7.656c0 .44.308.748.748.748h11.308c.836 0 1.54.748 1.54 1.584 0 .836-.704 1.584-1.54 1.584h-4.224c-.44 0-.748.308-.748.748 0 .396.308.704.748.704h4.224c1.628 0 3.036-1.364 3.036-3.036s-1.408-3.08-3.036-3.08z" fill="#0BDA51"/></g><g filter="url(#filter1_d)"><path d="M34.315 74.608h-2.068c-.44 0-.748.308-.748.704 0 .44.308.748.748.748h2.068c.792 0 1.54.748 1.54 1.584 0 .88-.704 1.584-1.54 1.584h-9.724c-.44 0-.748.308-.748.748v9.988c0 .88-.704 1.584-1.584 1.584-.88 0-1.584-.704-1.584-1.584V73.816c0-.44-.308-.748-.748-.748-.396 0-.704.308-.704.748v16.148A3.042 3.042 0 0022.26 93c1.672 0 3.08-1.364 3.08-3.036v-9.24h8.976c1.672 0 3.036-1.408 3.036-3.08 0-1.672-1.408-3.036-3.036-3.036zM35.9 62.332H22.26a3.014 3.014 0 00-3.036 3.036v4.972c0 .396.308.748.704.748.44 0 .748-.352.748-.748v-4.972c0-.88.704-1.54 1.584-1.54H35.9c.836 0 1.54.704 1.54 1.54 0 .836-.704 1.584-1.54 1.584H24.591a.742.742 0 00-.748.748v7.612c0 .44.308.748.748.748H28.2c.44 0 .748-.308.748-.748 0-.396-.308-.704-.748-.704h-2.86v-6.16H35.9c1.628 0 3.036-1.408 3.036-3.08 0-1.672-1.408-3.036-3.036-3.036zm31.85 26.532l-5.28-14.08c-.132-.396-.572-.572-.968-.44-.396.132-.572.572-.44.968l5.28 14.08c.308.836-.088 1.76-.924 2.068-.088.044-.264.088-.528.088-.66 0-1.232-.396-1.452-1.012l-2.024-5.412c-.088-.308-.396-.484-.704-.484H50.59c-.308 0-.616.176-.704.484l-2.068 5.412a1.521 1.521 0 01-1.452 1.012c-.22 0-.396-.044-.528-.088-.836-.308-1.232-1.232-.968-2.068l9.24-24.552c.22-.616.88-1.012 1.496-1.012h.044c.66 0 1.232.396 1.496 1.012l2.772 7.436c.176.396.616.616.968.44.396-.132.572-.572.44-.968l-2.816-7.48a3.009 3.009 0 00-2.904-1.892c-1.188-.044-2.42.748-2.904 1.936l-9.196 24.596c-.572 1.628.22 3.344 1.804 3.96a4.34 4.34 0 001.056.132 3.096 3.096 0 002.86-1.936l1.848-4.928h9.108l1.892 4.928C62.47 92.252 63.614 93 64.89 93c.22 0 .66 0 1.056-.132 1.584-.616 2.376-2.332 1.804-4.004zM53.36 77.776c-.352-.132-.792.088-.968.44l-.836 2.332c-.088.22-.088.484.088.66.132.22.352.352.616.352h6.732a.702.702 0 00.616-.352.702.702 0 00.088-.66l-3.388-8.976c-.088-.308-.396-.484-.704-.484a.66.66 0 00-.66.484l-1.452 3.784a.718.718 0 00.44.924.73.73 0 00.968-.396l.704-1.936 2.332 6.116h-4.62l.484-1.32c.132-.352-.044-.792-.44-.968zm20.467-.528c.044-2.904.968-5.72 2.684-8.14 1.32-1.848 3.124-3.388 5.192-4.488a14.895 14.895 0 016.732-1.628c3.388 0 6.556 1.056 9.152 3.08.66.572.792 1.584.308 2.288-.572.704-1.628.836-2.288.352-1.98-1.628-4.444-2.464-7.172-2.464-.616 0-1.188.044-1.76.132-.396.044-.704.44-.616.836.044.396.44.704.836.616.528-.044 1.012-.088 1.54-.088 2.376 0 4.532.704 6.248 2.112 1.276 1.012 3.3.748 4.356-.572.044 0 .044 0 .044-.044a3.225 3.225 0 00-.572-4.356c-2.86-2.244-6.38-3.388-10.12-3.388A16.09 16.09 0 0081 63.3a17.152 17.152 0 00-5.72 4.928c-1.892 2.684-2.904 5.808-2.904 9.02 0 4.092 1.584 7.964 4.488 10.912.176.176.352.22.528.22.22 0 .396-.044.528-.22.308-.264.308-.748 0-1.056a14.263 14.263 0 01-4.092-9.856zm25.256 8.008c0-.044-.044-.044-.044-.044-1.056-1.276-3.036-1.54-4.356-.572-1.804 1.408-3.872 2.112-6.248 2.112-2.596 0-5.104-.968-6.996-2.772-1.804-1.76-2.816-4.224-2.816-6.732s.968-4.84 2.772-6.732a12.559 12.559 0 012.552-1.76.704.704 0 00.352-.968.704.704 0 00-.968-.352 11.334 11.334 0 00-2.948 2.024c-2.156 2.2-3.256 4.884-3.256 7.788s1.188 5.764 3.256 7.788c2.2 2.068 5.06 3.212 8.052 3.212 2.728 0 5.148-.792 7.128-2.42.66-.484 1.76-.352 2.332.308.484.748.396 1.76-.308 2.288-2.596 2.024-5.764 3.124-9.152 3.124-2.464 0-4.84-.616-6.996-1.804-.352-.176-.792-.044-1.012.308-.176.396-.044.836.308 1.012C83.068 92.34 85.752 93 88.436 93c3.696 0 7.216-1.144 10.076-3.388 1.32-1.056 1.54-2.992.572-4.356zm19.215-8.756a.742.742 0 00-.748.748v12.716c0 .88-.66 1.584-1.54 1.584s-1.584-.704-1.584-1.584V67.7a.742.742 0 00-.748-.748h-6.556c-.88 0-1.584-.704-1.584-1.584 0-.88.704-1.54 1.584-1.54a.771.771 0 00.748-.748.742.742 0 00-.748-.748c-1.716 0-3.036 1.32-3.036 3.036 0 1.672 1.32 3.08 3.036 3.08h5.852v21.516A3.042 3.042 0 00116.011 93a3.014 3.014 0 003.036-3.036V77.248a.771.771 0 00-.748-.748zm6.644-14.168h-13.86a.742.742 0 00-.748.748c0 .396.352.748.748.748h13.86c.836 0 1.54.66 1.54 1.54 0 .836-.748 1.584-1.54 1.584h-6.644a.742.742 0 00-.748.748v5.588c0 .396.308.748.748.748a.771.771 0 00.748-.748v-4.84h5.896c1.628 0 3.036-1.408 3.036-3.08a3.042 3.042 0 00-3.036-3.036zm13.753 10.604c-.396-.132-.836.088-.968.44-.396 1.276-.616 2.552-.616 3.872 0 2.948 1.1 5.808 3.036 7.788 1.936 2.068 4.532 3.212 7.304 3.212 2.64 0 5.192-1.144 7.128-3.212 1.936-2.024 3.036-4.884 3.036-7.788s-1.1-5.72-3.036-7.788c-1.936-2.068-4.444-3.212-7.128-3.212-2.816 0-5.368 1.1-7.304 3.168-.132.132-.264.308-.396.44a.76.76 0 00.088 1.056.76.76 0 001.056-.088c.088-.132.22-.264.308-.352 1.672-1.804 3.828-2.728 6.248-2.728 2.244 0 4.4.968 6.028 2.728 1.672 1.76 2.64 4.268 2.64 6.776 0 2.552-.968 5.016-2.64 6.776-1.672 1.76-3.784 2.728-6.028 2.728-2.376 0-4.532-.924-6.248-2.772-1.672-1.716-2.596-4.136-2.596-6.732 0-1.144.176-2.288.528-3.388a.718.718 0 00-.44-.924zm19.272-6.732c-2.64-2.948-6.556-4.708-10.516-4.708a14.718 14.718 0 00-10.78 4.708c-2.816 2.948-4.312 6.864-4.312 11.044 0 4.224 1.54 8.14 4.312 11.088A14.821 14.821 0 00147.452 93c3.916 0 7.832-1.76 10.516-4.664.088-.132.176-.22.264-.308.264-.308.264-.792-.044-1.056s-.792-.264-1.056.044a1.914 1.914 0 00-.264.308c-2.42 2.64-5.94 4.224-9.416 4.224-3.652 0-7.172-1.54-9.68-4.268-2.552-2.64-3.96-6.204-3.96-10.032 0-3.784 1.408-7.348 3.96-10.032 2.464-2.684 5.984-4.224 9.68-4.224 3.52 0 7.04 1.54 9.416 4.224a14.48 14.48 0 014.004 10.032c0 2.112-.44 4.136-1.276 6.072a.704.704 0 00.352.968c.352.176.836 0 .968-.352a15.914 15.914 0 001.452-6.688c0-4.092-1.54-8.052-4.4-11.044zM179.58 80.68c-.088-.308-.352-.484-.704-.484h-6.688c-.44 0-.748.308-.748.748v9.02c0 .88-.704 1.584-1.584 1.584-.88 0-1.584-.704-1.584-1.584v-5.808c0-.44-.308-.748-.748-.748-.396 0-.704.308-.704.748v5.808A3.042 3.042 0 00169.857 93c1.672 0 3.08-1.364 3.08-3.036v-8.316h5.412c.616 1.804 2.552 7.568 3.036 8.624a.777.777 0 001.012.352c.352-.176.528-.616.352-1.012-.484-.968-2.42-6.776-3.168-8.932zm-7.392-7.92a.742.742 0 00-.748.748v2.772c0 .44.308.748.748.748h5.104c2.816 0 5.06-2.244 5.06-4.972 0-2.816-2.244-5.104-5.06-5.104h-5.104a.742.742 0 00-.748.748v2.332c0 .396.308.748.748.748a.771.771 0 00.748-.748v-1.584h4.356c2.024 0 3.564 1.584 3.564 3.608 0 1.936-1.584 3.476-3.564 3.476h-4.356v-2.024a.771.771 0 00-.748-.748zm15.972 15.796c-.264-.792-2.156-5.104-4.268-9.504 2.024-1.848 3.08-4.312 3.08-6.996 0-5.368-4.312-9.724-9.68-9.724h-7.436c-1.716 0-3.036 1.32-3.036 3.036v15.488c0 .396.308.748.704.748.44 0 .748-.352.748-.748V65.368c0-.88.704-1.54 1.584-1.54h7.436c4.532 0 8.184 3.652 8.184 8.228 0 2.42-1.056 4.664-2.948 6.248a.752.752 0 00-.22.88c2.288 4.708 4.224 9.24 4.444 9.856.132.396.088.836-.088 1.188-.176.396-.528.66-.924.792s-.572.572-.44.968c.088.308.396.484.704.484.088 0 .132 0 .22-.044.792-.264 1.408-.792 1.76-1.54.396-.704.44-1.54.176-2.332zm18.826-.352a.742.742 0 00-.748.748v1.012c0 .88-.66 1.584-1.54 1.584-.836 0-1.54-.748-1.54-1.584V78.7a.849.849 0 00-.132-.44l-8.492-11.748c-.264-.308-.396-.704-.308-1.1.044-.396.264-.748.616-1.012.352-.22.748-.352 1.188-.264.396.044.704.264.924.616l7.128 9.768c.176.176.396.308.616.308a.77.77 0 00.616-.308l2.64-3.652c.264-.308.176-.792-.132-1.056a.814.814 0 00-1.056.176l-2.068 2.816-6.512-8.888a2.897 2.897 0 00-1.892-1.232c-.836-.176-1.628.044-2.332.528a3.07 3.07 0 00-1.232 2.024 3.02 3.02 0 00.616 2.2l8.316 11.528v11A3.042 3.042 0 00204.699 93c1.716 0 3.036-1.32 3.036-3.036v-1.012c0-.44-.308-.748-.748-.748zm8.536-24.992c-1.364-1.012-3.212-.704-4.268.66l-2.772 3.74c-.22.352-.176.836.176 1.056.352.264.792.176 1.056-.176l2.728-3.74c.528-.704 1.496-.836 2.156-.352.66.528.836 1.452.352 2.156l-8.536 11.704c-.088.132-.176.308-.176.44v7.128c0 .44.352.748.748.748.44 0 .748-.308.748-.748v-6.864l8.448-11.528c.924-1.364.616-3.256-.66-4.224z" fill="#F8F4FF"/></g><g filter="url(#filter2_d)"><path fill="#F8F4FF" d="M48 50h140v1H48z"/></g><defs><filter id="filter0_d" x=".304" y="2.496" width="235.4" height="37.504" filterUnits="userSpaceOnUse" color-interpolation-filters="sRGB"><feFlood flood-opacity="0" result="BackgroundImageFix"/><feColorMatrix in="SourceAlpha" values="0 0 0 0 0 0 0 0 0 0 0 0 0 0 0 0 0 0 127 0"/><feOffset/><feGaussianBlur stdDeviation="1.5"/><feColorMatrix values="0 0 0 0 0.0431373 0 0 0 0 0.854902 0 0 0 0 0.317647 0 0 0 1 0"/><feBlend in2="BackgroundImageFix" result="effect1_dropShadow"/><feBlend in="SourceGraphic" in2="effect1_dropShadow" result="shape"/></filter><filter id="filter1_d" x="16.224" y="58.496" width="203.494" height="37.504" filterUnits="userSpaceOnUse" color-interpolation-filters="sRGB"><feFlood flood-opacity="0" result="BackgroundImageFix"/><feColorMatrix in="SourceAlpha" values="0 0 0 0 0 0 0 0 0 0 0 0 0 0 0 0 0 0 127 0"/><feOffset/><feGaussianBlur stdDeviation="1.5"/><feColorMatrix values="0 0 0 0 0.972549 0 0 0 0 0.956863 0 0 0 0 1 0 0 0 1 0"/><feBlend in2="BackgroundImageFix" result="effect1_dropShadow"/><feBlend in="SourceGraphic" in2="effect1_dropShadow" result="shape"/></filter><filter id="filter2_d" x="43.5" y="45.5" width="149" height="10" filterUnits="userSpaceOnUse" color-interpolation-filters="sRGB"><feFlood flood-opacity="0" result="BackgroundImageFix"/><feColorMatrix in="SourceAlpha" values="0 0 0 0 0 0 0 0 0 0 0 0 0 0 0 0 0 0 127 0"/><feMorphology radius=".5" operator="dilate" in="SourceAlpha" result="effect1_dropShadow"/><feOffset/><feGaussianBlur stdDeviation="2"/><feColorMatrix values="0 0 0 0 0.972549 0 0 0 0 0.956863 0 0 0 0 1 0 0 0 1 0"/><feBlend in2="BackgroundImageFix" result="effect1_dropShadow"/><feBlend in="SourceGraphic" in2="effect1_dropShadow" result="shape"/></filter></defs></svg>