<svg width="75" height="52" fill="none" xmlns="http://www.w3.org/2000/svg"><path d="M9.119 38.148L29.81 2.765a1.014 1.014 0 011.374-.368l1.6.912c.48.274.643.882.364 1.359L12.456 40.05 9.12 38.148z" fill="#fff"/><path d="M11.751 37.452c2.765 1.576 3.497 5.435 1.634 8.62-1.862 3.184-5.613 4.488-8.378 2.912-2.765-1.576-3.497-5.435-1.635-8.62 1.863-3.184 5.614-4.488 8.38-2.912zm-5.396 9.226c1.66.946 3.91.163 5.028-1.748 1.117-1.91.678-4.226-.98-5.172-1.66-.945-3.91-.163-5.028 1.748-1.118 1.91-.679 4.226.98 5.172zm21.518-8.53L7.18 2.765a1.014 1.014 0 00-1.373-.368l-1.6.912a.987.987 0 00-.364 1.359L24.535 40.05l3.338-1.902z" fill="#fff"/><path d="M25.24 37.452c-2.765 1.576-3.496 5.435-1.634 8.62 1.862 3.184 5.614 4.488 8.379 2.912 2.765-1.576 3.496-5.435 1.634-8.62-1.863-3.184-5.614-4.488-8.379-2.912zm5.396 9.226c-1.66.946-3.91.163-5.027-1.748-1.118-1.91-.679-4.226.98-5.172 1.66-.945 3.91-.163 5.027 1.748 1.118 1.91.679 4.226-.98 5.172z" fill="#fff"/><ellipse cx="18.307" cy="25.683" rx=".964" ry=".951" fill="#333"/><rect width="34.465" height="3.83" rx="1" transform="scale(1.0064 .99355) rotate(-45 67.453 -27.668)" fill="#fff"/><path d="M56.635 10.445a.985.985 0 010-1.405l1.536-1.516c.289-.285.724-.37 1.1-.214l1.724.714 2.165.896c.12.05.23.122.322.213l10.806 10.669a.985.985 0 010 1.405l-2.664 2.63a1.016 1.016 0 01-1.423 0L56.635 10.445z" fill="#fff"/></svg>