<svg width="75" height="52" viewBox="0 0 75 52" fill="none" xmlns="http://www.w3.org/2000/svg">
<path d="M9.11871 38.1479L29.811 2.76537C30.0899 2.28863 30.7048 2.12386 31.1847 2.39734L32.7848 3.30938C33.2646 3.58286 33.4275 4.19104 33.1487 4.66779L12.4564 40.0504L9.11871 38.1479Z" fill="white"/>
<path d="M11.7511 37.4517C14.5161 39.0277 15.2478 42.887 13.3853 46.0717C11.5229 49.2564 7.77156 50.5605 5.00653 48.9845C2.2415 47.4085 1.50982 43.5492 3.37228 40.3645C5.23473 37.1798 8.98605 35.8757 11.7511 37.4517ZM6.35544 46.6779C8.01446 47.6235 10.2652 46.8411 11.3827 44.9303C12.5002 43.0195 12.0612 40.7039 10.4022 39.7583C8.74315 38.8127 6.49236 39.5951 5.37489 41.5059C4.25741 43.4167 4.69642 45.7323 6.35544 46.6779Z" fill="white"/>
<path d="M27.8726 38.1479L7.18022 2.76537C6.90142 2.28863 6.28643 2.12386 5.80661 2.39734L4.2065 3.30938C3.72668 3.58286 3.56373 4.19104 3.84254 4.66779L24.5349 40.0504L27.8726 38.1479Z" fill="white"/>
<path d="M25.2402 37.4517C22.4752 39.0277 21.7435 42.887 23.6059 46.0717C25.4684 49.2564 29.2197 50.5605 31.9847 48.9845C34.7498 47.4085 35.4815 43.5492 33.619 40.3645C31.7565 37.1798 28.0052 35.8757 25.2402 37.4517ZM30.6358 46.6779C28.9768 47.6235 26.726 46.8411 25.6085 44.9303C24.4911 43.0195 24.9301 40.7039 26.5891 39.7583C28.2481 38.8127 30.4989 39.5951 31.6164 41.5059C32.7339 43.4167 32.2949 45.7323 30.6358 46.6779Z" fill="white"/>
<ellipse cx="18.3066" cy="25.6827" rx="0.963505" ry="0.951207" fill="#333333"/>
<rect width="34.4655" height="3.82951" rx="1" transform="matrix(0.711635 -0.702549 0.711635 0.702549 39.5723 39.3374)" fill="white"/>
<path d="M56.6352 10.4452C56.2422 10.0572 56.2422 9.42813 56.6352 9.04013L58.171 7.52392C58.46 7.23864 58.895 7.1542 59.2719 7.31022L60.9955 8.0238L63.1597 8.91978C63.2802 8.96968 63.3897 9.04226 63.4821 9.13349L74.2884 19.8018C74.6814 20.1898 74.6814 20.8189 74.2884 21.2069L71.6239 23.8374C71.2308 24.2254 70.5936 24.2254 70.2006 23.8374L56.6352 10.4452Z" fill="white"/>
</svg>
